<svg width="20" height="24" viewBox="0 0 20 24" fill="none" xmlns="http://www.w3.org/2000/svg">
<path d="M7.0013 11.9987C5.94647 11.9987 4.91533 12.3115 4.03826 12.8975C3.1612 13.4836 2.47761 14.3165 2.07395 15.2911C1.67028 16.2656 1.56466 17.3379 1.77045 18.3725C1.97624 19.4071 2.48419 20.3574 3.23007 21.1033C3.97595 21.8491 4.92626 22.3571 5.96082 22.5629C6.99539 22.7687 8.06774 22.6631 9.04228 22.2594C10.0168 21.8557 10.8498 21.1721 11.4358 20.2951C12.0218 19.418 12.3346 18.3869 12.3346 17.332V1.33203C12.3346 3.10014 13.037 4.79583 14.2873 6.04608C15.5375 7.29632 17.2332 7.9987 19.0013 7.9987" stroke="#D5C9BE" stroke-width="2" stroke-linecap="round" stroke-linejoin="round"/>
</svg>
